<mxfile host="app.diagrams.net" modified="2022-02-13T02:01:36.545Z" agent="5.0 (Macintosh; Intel Mac OS X 10_15_7) AppleWebKit/537.36 (KHTML, like Gecko) Chrome/96.0.4664.55 Safari/537.36" etag="s3qdXBS4rPdc1cqzX0lh" version="15.9.6" type="github">
  <diagram id="CltZ_HjlIuyoarHZaU77" name="Page-1">
    <mxGraphModel dx="2505" dy="934" grid="1" gridSize="10" guides="1" tooltips="1" connect="1" arrows="1" fold="1" page="1" pageScale="1" pageWidth="827" pageHeight="1169" math="0" shadow="0">
      <root>
        <mxCell id="0" />
        <mxCell id="1" parent="0" />
        <mxCell id="ap7E81oMt_hgHPO_S6fu-3" value="&lt;font style=&quot;font-size: 22px&quot;&gt;消息队列&lt;/font&gt;" style="rounded=1;whiteSpace=wrap;html=1;dashed=1;dashPattern=1 1;fillColor=none;" vertex="1" parent="1">
          <mxGeometry x="140" y="230" width="120" height="160" as="geometry" />
        </mxCell>
        <mxCell id="ap7E81oMt_hgHPO_S6fu-4" value="&lt;font style=&quot;font-size: 22px&quot;&gt;实时流处理系统&lt;/font&gt;" style="rounded=1;whiteSpace=wrap;html=1;dashed=1;dashPattern=1 1;fillColor=none;" vertex="1" parent="1">
          <mxGeometry x="354" y="230" width="120" height="160" as="geometry" />
        </mxCell>
        <mxCell id="ap7E81oMt_hgHPO_S6fu-5" value="&lt;font style=&quot;font-size: 22px&quot;&gt;数据库&lt;/font&gt;" style="rounded=1;whiteSpace=wrap;html=1;dashed=1;dashPattern=1 1;fillColor=none;" vertex="1" parent="1">
          <mxGeometry x="564" y="230" width="120" height="160" as="geometry" />
        </mxCell>
        <mxCell id="ap7E81oMt_hgHPO_S6fu-6" value="&lt;span style=&quot;font-size: 22px&quot;&gt;WEB服务器&lt;/span&gt;" style="rounded=1;whiteSpace=wrap;html=1;dashed=1;dashPattern=1 1;fillColor=none;" vertex="1" parent="1">
          <mxGeometry x="769" y="230" width="120" height="160" as="geometry" />
        </mxCell>
        <mxCell id="ap7E81oMt_hgHPO_S6fu-7" value="&lt;span style=&quot;font-size: 22px&quot;&gt;前端展示界面&lt;/span&gt;" style="rounded=1;whiteSpace=wrap;html=1;dashed=1;dashPattern=1 1;fillColor=none;" vertex="1" parent="1">
          <mxGeometry x="1070" y="230" width="120" height="160" as="geometry" />
        </mxCell>
        <mxCell id="ap7E81oMt_hgHPO_S6fu-8" value="道集文件" style="text;html=1;strokeColor=none;fillColor=none;align=center;verticalAlign=middle;whiteSpace=wrap;rounded=0;dashed=1;dashPattern=1 1;fontSize=22;" vertex="1" parent="1">
          <mxGeometry x="-40" y="295" width="60" height="30" as="geometry" />
        </mxCell>
        <mxCell id="ap7E81oMt_hgHPO_S6fu-9" value="" style="endArrow=classic;html=1;rounded=0;fontSize=22;strokeWidth=3;" edge="1" parent="1">
          <mxGeometry width="50" height="50" relative="1" as="geometry">
            <mxPoint x="40" y="270" as="sourcePoint" />
            <mxPoint x="110" y="270" as="targetPoint" />
          </mxGeometry>
        </mxCell>
        <mxCell id="ap7E81oMt_hgHPO_S6fu-15" value="" style="endArrow=classic;html=1;rounded=0;fontSize=22;strokeWidth=3;" edge="1" parent="1">
          <mxGeometry width="50" height="50" relative="1" as="geometry">
            <mxPoint x="40" y="309.41" as="sourcePoint" />
            <mxPoint x="110" y="309.41" as="targetPoint" />
          </mxGeometry>
        </mxCell>
        <mxCell id="ap7E81oMt_hgHPO_S6fu-16" value="" style="endArrow=classic;html=1;rounded=0;fontSize=22;strokeWidth=3;" edge="1" parent="1">
          <mxGeometry width="50" height="50" relative="1" as="geometry">
            <mxPoint x="40" y="350.00000000000006" as="sourcePoint" />
            <mxPoint x="110" y="350.00000000000006" as="targetPoint" />
          </mxGeometry>
        </mxCell>
        <mxCell id="ap7E81oMt_hgHPO_S6fu-18" value="" style="endArrow=none;dashed=1;html=1;dashPattern=1 3;strokeWidth=2;rounded=0;fontSize=22;startArrow=none;" edge="1" parent="1" source="ap7E81oMt_hgHPO_S6fu-21">
          <mxGeometry width="50" height="50" relative="1" as="geometry">
            <mxPoint x="310" y="480" as="sourcePoint" />
            <mxPoint x="310" y="130" as="targetPoint" />
          </mxGeometry>
        </mxCell>
        <mxCell id="ap7E81oMt_hgHPO_S6fu-19" value="&lt;font style=&quot;font-size: 26px&quot; color=&quot;#cccccc&quot;&gt;持久存储层&lt;/font&gt;" style="text;html=1;strokeColor=none;fillColor=none;align=center;verticalAlign=middle;whiteSpace=wrap;rounded=0;dashed=1;dashPattern=1 1;fontSize=22;" vertex="1" parent="1">
          <mxGeometry x="50" y="420" width="190" height="30" as="geometry" />
        </mxCell>
        <mxCell id="ap7E81oMt_hgHPO_S6fu-20" value="" style="endArrow=classic;html=1;rounded=0;fontSize=26;fontColor=#CCCCCC;strokeWidth=3;entryX=1;entryY=0.5;entryDx=0;entryDy=0;" edge="1" parent="1" source="ap7E81oMt_hgHPO_S6fu-4" target="ap7E81oMt_hgHPO_S6fu-3">
          <mxGeometry width="50" height="50" relative="1" as="geometry">
            <mxPoint x="283.28932188134524" y="360" as="sourcePoint" />
            <mxPoint x="280" y="310" as="targetPoint" />
          </mxGeometry>
        </mxCell>
        <mxCell id="ap7E81oMt_hgHPO_S6fu-21" value="&lt;font color=&quot;#ff0000&quot;&gt;poll&lt;/font&gt;" style="text;html=1;strokeColor=none;fillColor=none;align=center;verticalAlign=middle;whiteSpace=wrap;rounded=0;dashed=1;dashPattern=1 1;fontSize=26;fontColor=#CCCCCC;" vertex="1" parent="1">
          <mxGeometry x="280" y="280" width="60" height="30" as="geometry" />
        </mxCell>
        <mxCell id="ap7E81oMt_hgHPO_S6fu-22" value="" style="endArrow=none;dashed=1;html=1;dashPattern=1 3;strokeWidth=2;rounded=0;fontSize=22;" edge="1" parent="1" target="ap7E81oMt_hgHPO_S6fu-21">
          <mxGeometry width="50" height="50" relative="1" as="geometry">
            <mxPoint x="310" y="479.9999999999998" as="sourcePoint" />
            <mxPoint x="310" y="130" as="targetPoint" />
          </mxGeometry>
        </mxCell>
        <mxCell id="ap7E81oMt_hgHPO_S6fu-23" value="" style="endArrow=classic;html=1;rounded=0;fontSize=22;strokeWidth=3;entryX=0;entryY=0.5;entryDx=0;entryDy=0;" edge="1" parent="1" target="ap7E81oMt_hgHPO_S6fu-5">
          <mxGeometry width="50" height="50" relative="1" as="geometry">
            <mxPoint x="474" y="310" as="sourcePoint" />
            <mxPoint x="544" y="310" as="targetPoint" />
          </mxGeometry>
        </mxCell>
        <mxCell id="ap7E81oMt_hgHPO_S6fu-24" value="&lt;font style=&quot;font-size: 16px&quot;&gt;执行用户自&lt;br&gt;定义算法并&lt;br&gt;写结果&lt;/font&gt;" style="edgeLabel;html=1;align=center;verticalAlign=middle;resizable=0;points=[];fontSize=26;fontColor=#FF0000;" vertex="1" connectable="0" parent="ap7E81oMt_hgHPO_S6fu-23">
          <mxGeometry x="-0.2719" y="3" relative="1" as="geometry">
            <mxPoint x="13" y="-47" as="offset" />
          </mxGeometry>
        </mxCell>
        <mxCell id="ap7E81oMt_hgHPO_S6fu-25" value="" style="endArrow=classic;html=1;rounded=0;fontSize=22;strokeWidth=3;entryX=1;entryY=0.5;entryDx=0;entryDy=0;" edge="1" parent="1" target="ap7E81oMt_hgHPO_S6fu-5">
          <mxGeometry width="50" height="50" relative="1" as="geometry">
            <mxPoint x="769" y="309.41" as="sourcePoint" />
            <mxPoint x="839" y="309.41" as="targetPoint" />
          </mxGeometry>
        </mxCell>
        <mxCell id="ap7E81oMt_hgHPO_S6fu-26" value="&lt;font color=&quot;#ff0000&quot;&gt;query&lt;/font&gt;" style="text;html=1;strokeColor=none;fillColor=none;align=center;verticalAlign=middle;whiteSpace=wrap;rounded=0;dashed=1;dashPattern=1 1;fontSize=26;fontColor=#CCCCCC;" vertex="1" parent="1">
          <mxGeometry x="700" y="280" width="60" height="30" as="geometry" />
        </mxCell>
        <mxCell id="ap7E81oMt_hgHPO_S6fu-29" value="" style="endArrow=none;dashed=1;html=1;dashPattern=1 3;strokeWidth=2;rounded=0;fontSize=22;" edge="1" parent="1">
          <mxGeometry width="50" height="50" relative="1" as="geometry">
            <mxPoint x="940" y="480" as="sourcePoint" />
            <mxPoint x="940" y="140" as="targetPoint" />
          </mxGeometry>
        </mxCell>
        <mxCell id="ap7E81oMt_hgHPO_S6fu-30" value="&lt;font style=&quot;font-size: 16px&quot; color=&quot;#ff0000&quot;&gt;可视化结果&lt;/font&gt;" style="endArrow=classic;html=1;rounded=0;fontSize=22;strokeWidth=3;" edge="1" parent="1">
          <mxGeometry x="-0.125" y="20" width="50" height="50" relative="1" as="geometry">
            <mxPoint x="900" y="350" as="sourcePoint" />
            <mxPoint x="1060" y="350" as="targetPoint" />
            <mxPoint x="-1" as="offset" />
          </mxGeometry>
        </mxCell>
        <mxCell id="ap7E81oMt_hgHPO_S6fu-31" value="" style="endArrow=classic;html=1;rounded=0;fontSize=22;strokeWidth=3;" edge="1" parent="1">
          <mxGeometry x="-0.067" y="-19" width="50" height="50" relative="1" as="geometry">
            <mxPoint x="1050" y="278.81999999999977" as="sourcePoint" />
            <mxPoint x="900" y="279" as="targetPoint" />
            <mxPoint x="-1" as="offset" />
          </mxGeometry>
        </mxCell>
        <mxCell id="ap7E81oMt_hgHPO_S6fu-33" value="提交查询条件、&lt;br&gt;结果导出请求等" style="text;html=1;strokeColor=none;fillColor=none;align=center;verticalAlign=middle;whiteSpace=wrap;rounded=0;dashed=1;dashPattern=1 1;fontSize=16;fontColor=#FF0000;" vertex="1" parent="1">
          <mxGeometry x="870" y="240" width="236" height="30" as="geometry" />
        </mxCell>
        <mxCell id="ap7E81oMt_hgHPO_S6fu-40" value="&lt;font style=&quot;font-size: 22px&quot; color=&quot;#000000&quot;&gt;算法参数配置文件&lt;br&gt;与用户自定义算法&lt;/font&gt;" style="text;html=1;strokeColor=none;fillColor=none;align=center;verticalAlign=middle;whiteSpace=wrap;rounded=0;dashed=1;dashPattern=1 1;fontSize=16;fontColor=#FF0000;" vertex="1" parent="1">
          <mxGeometry x="330" y="100" width="180" height="30" as="geometry" />
        </mxCell>
        <mxCell id="ap7E81oMt_hgHPO_S6fu-41" value="" style="endArrow=classic;html=1;rounded=0;fontSize=22;strokeWidth=1;" edge="1" parent="1" target="ap7E81oMt_hgHPO_S6fu-4">
          <mxGeometry width="50" height="50" relative="1" as="geometry">
            <mxPoint x="414" y="140" as="sourcePoint" />
            <mxPoint x="484" y="160" as="targetPoint" />
            <Array as="points">
              <mxPoint x="414" y="180" />
            </Array>
          </mxGeometry>
        </mxCell>
        <mxCell id="ap7E81oMt_hgHPO_S6fu-42" value="&lt;font color=&quot;#cccccc&quot;&gt;&lt;span style=&quot;font-size: 26px&quot;&gt;中间计算层&lt;/span&gt;&lt;/font&gt;" style="text;html=1;strokeColor=none;fillColor=none;align=center;verticalAlign=middle;whiteSpace=wrap;rounded=0;dashed=1;dashPattern=1 1;fontSize=22;" vertex="1" parent="1">
          <mxGeometry x="529" y="420" width="190" height="30" as="geometry" />
        </mxCell>
        <mxCell id="ap7E81oMt_hgHPO_S6fu-43" value="&lt;font color=&quot;#cccccc&quot;&gt;&lt;span style=&quot;font-size: 26px&quot;&gt;交互层&lt;/span&gt;&lt;/font&gt;" style="text;html=1;strokeColor=none;fillColor=none;align=center;verticalAlign=middle;whiteSpace=wrap;rounded=0;dashed=1;dashPattern=1 1;fontSize=22;" vertex="1" parent="1">
          <mxGeometry x="990" y="420" width="190" height="30" as="geometry" />
        </mxCell>
      </root>
    </mxGraphModel>
  </diagram>
</mxfile>
